<!-- Generator: Adobe Illustrator 19.1.0, SVG Export Plug-In  -->
<svg version="1.1"
	 xmlns="http://www.w3.org/2000/svg" xmlns:xlink="http://www.w3.org/1999/xlink" xmlns:a="http://ns.adobe.com/AdobeSVGViewerExtensions/3.0/"
	 x="0px" y="0px" width="203.728px" height="414.578px" viewBox="0 0 203.728 414.578"
	 style="enable-background:new 0 0 203.728 414.578;" xml:space="preserve">
<style type="text/css">
	.st0{fill:#A7A9AC;}
	.st1{fill:#58595B;}
</style>
<defs>
</defs>
<g>
	<path class="st0" d="M201.338,83.851h-0.741V28.44c0-15.682-12.751-28.44-28.44-28.44H31.325C15.643,0,2.885,12.758,2.885,28.44
		v17.833H1.861C0.837,46.272,0,47.11,0,48.14v15.495c0,1.03,0.837,1.868,1.861,1.868h1.024v18.348H1.938
		c-1.024,0-1.861,0.837-1.861,1.868v29.084c0,1.03,0.837,1.868,1.861,1.868h0.947v5.712H2.016c-1.03,0-1.868,0.837-1.868,1.868
		v29.084c0,1.03,0.837,1.868,1.868,1.868h0.869v230.937c0,15.682,12.758,28.44,28.44,28.44h140.833
		c15.688,0,28.44-12.758,28.44-28.44V116.683h0.741c1.32,0,2.389-1.076,2.389-2.402V86.272
		C203.728,84.926,202.659,83.851,201.338,83.851z M101.252,6.434c1.41,0,2.55,1.146,2.55,2.55c0,1.41-1.146,2.55-2.55,2.55
		c-1.398,0-2.55-1.146-2.55-2.55S99.854,6.434,101.252,6.434z M84.52,22.36v-1.198c0-0.869,0.702-1.578,1.578-1.578h0.451h28.588
		c0.148,0,0.251,0.122,0.393,0.161c-0.052-0.045-0.103-0.161-0.148-0.161c1.159,0,2.112,2.035,2.112,3.201
		c0,1.211-0.953,3.239-2.112,3.239c0.052,0,0.103-0.116,0.148-0.161c-0.135,0.039-0.238,0.161-0.393,0.161H86.549h-0.451
		c-0.876,0-1.578-0.708-1.578-1.578v-1.172c-0.026-0.148-0.077-0.316-0.077-0.451C84.443,22.689,84.495,22.515,84.52,22.36z
		 M68.452,19.121c2.164,0,3.922,1.758,3.922,3.922s-1.758,3.922-3.922,3.922c-2.164,0-3.922-1.758-3.922-3.922
		S66.288,19.121,68.452,19.121z M101.252,407.185c-9.287,0-16.847-7.561-16.847-16.847c0-9.287,7.561-16.847,16.847-16.847
		c9.293,0,16.854,7.561,16.854,16.847C118.106,399.624,110.545,407.185,101.252,407.185z M194.003,365.221
		c0,1.179-0.953,2.132-2.138,2.132H9.37c-1.179,0-2.132-0.953-2.132-2.132V47.477c0-1.179,0.953-2.132,2.132-2.132h182.494
		c1.185,0,2.138,0.953,2.138,2.132C194.003,47.477,194.003,365.221,194.003,365.221z"/>
	<circle class="st0" cx="101.329" cy="390.608" r="14.162"/>
</g>
<g>
	<g>
		<path class="st1" d="M76.943,134.137c-0.863-5.585-1.065-11.7-2.882-16.611c-7.972-21.581-16.411-42.825-24.696-64.17
			c-1.044-2.696-2.137-5.34-3.217-8.011c0.313,2.316,1.044,4.347,1.782,6.334c7.714,20.865,15.297,41.823,23.206,62.519
			c3.523,9.266,5.368,18.928,5.96,29.255c0.501,8.71,0.543,8.786-5.271,7.893c0.362,0.8,0.71,1.567,1.044,2.3
			c-4.352,7.269-4.352,7.269-9.406,5.888c-0.571,1.491-1.135,3.024-1.782,4.759c-7.359-5.34-14.663-10.647-21.98-15.946
			c0.501,1.525,1.267,2.342,2.096,3.007c8.989,7.185,17.998,14.303,26.973,21.564c1.504,1.205,2.799,2.965,4.672,4.987
			c-1.17,0.623-1.587,0.834-2.033,1.053c0.327,0.901,0.661,1.786,1.149,3.1c-2.952-0.792-5.591-1.499-8.251-2.215
			c1.205,3.193,3.307,5.795,2.172,9.401c-0.432,1.407-2.068,2.03-3.036,2.881c0.961,0.278,2.249,0.657,4.177,1.23
			c-3.509,0.767-6.378,1.39-9.246,2.022c2.688,1.002,5.257,1.491,7.847,1.685c2.131,0.168,2.59,1.6,2.068,4.431
			c-19.502,2.215-38.92,4.422-58.345,6.638c1.615,0.404,3.231,0.396,4.839,0.295c8.445-0.539,16.891-1.196,25.35-1.6
			c1.984-0.093,4.01,1.061,5.988,0.893c7.471-0.64,14.928-1.584,23.241-2.502c-1.295,2.342-2.179,3.967-3.231,5.88
			c4.059-1.895,7.93-3.698,11.801-5.509c0.042,0.16,0.097,0.32,0.146,0.472c-3.036,3.336-6.057,6.671-9.218,10.15
			c1.072,6.697-4.303,5.13-6.698,9.561c4.867-3.294,8.919-4.296,13.124,1.424c-3.446,3.108-6.677,6.048-10.054,9.089
			c0.529,0.143,0.968,0.253,1.023,0.27c-2.235,3.546-5.194,6.722-6.642,10.959c-1.469,4.304-4.171,6.68-5.89,10.454
			c0.787-0.236,1.441-0.657,1.963-1.306c4.846-5.981,9.734-11.877,14.475-18.035c3.377-4.397,7.018-7.943,11.606-9.232
			c0.466-0.126,1.246-0.177,1.323-0.522c1.246-5.29,4.212-1.702,6.593-3.538c-1.17,4.035-2.04,7.017-2.91,10.016
			c0.327,0.202,0.661,0.413,0.989,0.606c1.058-2.375,2.124-4.768,3.502-7.893c1.191,4.608-0.975,6.056-2.207,7.868
			c-1.065,1.575-2.527,2.611-4.198,4.271c0.251-1.676,0.376-2.527,0.494-3.319c-2.959-1.053-2.785,2.401-3.683,4.557
			c-2.931,7.017-5.988,13.941-9.17,20.747c-0.46,0.977-1.873,1.659-2.785,1.541c-3.286-0.404-6.538-1.213-9.81-1.878
			c-0.028,0.253-0.056,0.514-0.084,0.767c3.648,1.516,7.297,3.024,10.896,4.507c-0.571,6.419-3.474,6.646-6.802,6.073
			c1.309,0.952,2.618,1.921,4.122,3.016c-3.46,8.988-6.754,17.563-10.04,26.121c0.216,0.177,0.432,0.345,0.647,0.522
			c4.533-11.043,9.044-22.103,13.653-33.087c0.501-1.221,1.49-2.013,2.249-3.007c0.153,1.23,0.306,2.46,0.599,4.759
			c1.163-2.569,2.026-4.456,3.182-7c-1.406-0.286-1.866-0.362-2.325-0.48c-0.487-0.126-0.982-0.303-2.284-0.716
			c8.111-12.905,15.791-25.11,23.457-37.324c0.265,0.286,0.536,0.573,0.794,0.868c-0.202,8.314-6.962,12.315-6.733,20.949
			c0.522-1.331,1.037-2.67,1.56-4.01c0.32,0.084,0.641,0.177,0.968,0.261c-0.084,2.013,0,4.094-0.285,6.04
			c-0.258,1.718-0.829,3.344-1.386,4.928c-3.836,10.816-7.763,21.564-11.523,32.439c-0.724,2.081-0.829,4.591-1.267,6.89
			c-1.33,6.899-1.894,14.337-7.011,18.38c-1.706,1.322-3.14,3.361-4.693,5.079c0.543,0.421,0.926,0.404,1.198,0.152
			c6.559-6.124,13.166-12.155,19.613-18.506c1.107-1.095,1.949-3.454,2.2-5.416c0.668-5.349,0.863-10.807,1.434-16.181
			c0.578-5.551,1.372-11.06,2.075-16.577c0.153,0.034,0.306,0.076,0.46,0.118c-1.232,12.778-2.465,25.557-3.711,38.344
			c0.244,0.076,0.48,0.16,0.731,0.227c0.48-2.291,1.205-4.532,1.413-6.882c0.71-8.247,1.142-16.544,1.894-24.773
			c0.348-3.9,1.184-7.699,1.796-11.54c0.244,0.084,0.487,0.177,0.731,0.27c-0.32,1.996-0.641,3.984-1.017,6.41
			c1.699-3.277,3.175-6.09,4.553-8.752c-1.734-4.81,0.682-8.946,0.703-13.781c1.594,1.558,2.827,2.754,4.031,3.942
			c-0.104,2.443-0.195,4.844-0.292,7.244c1.093-3.395,2.994-6.158,2.207-10.614c-0.369-2.081,0.71-5.543,1.949-7.067
			c1.128-1.398,3.335-1.019,5.222-1.466c0.724,8.044,1.413,15.727,2.11,23.426c-0.188,0.101-0.39,0.177-0.585,0.27
			c-1.476-6.267-2.959-12.526-4.435-18.784c-1.406,7.615,3.558,12.837,3.161,20.402c-0.46,0.202-1.198,0.522-1.866,0.809
			c-0.842-5.113-1.629-9.898-2.416-14.674c-1.281,5.618,2.312,10.875-0.32,16.325c-0.014,0.051,0.049,0.185,0.091,0.27
			c3.516,0.463,1.622,5.45,2.945,7.278c1.636-2.359-2.423-7.547,2.026-8.92c2.91,3.791,2.743,8.146,1.838,12.618
			c-1.274,6.292-2.597,12.551-3.857,18.835c-0.188,0.969-0.292,2.915-0.202,2.948c2.332,0.817,1.253,3.344,1.1,4.936
			c-1.553,16.35-3.203,32.683-4.86,49.016c-0.877,8.6-1.81,17.175-2.708,25.767c1.782-9.3,3.182-18.709,4.379-28.16
			c1.748-13.916,4.379-27.595,4.505-41.957c0.084-8.676,1.135-17.369,1.998-25.995c0.571-5.779,1.594-11.456,2.465-17.529
			c-0.731,0.261-1.218,0.421-2.52,0.868c1.023-2.535,1.741-4.288,2.534-6.242c-0.78,0.43-1.448,0.783-2.319,1.255
			c-0.355-3.807-0.682-7.295-1.01-10.799c-0.306-3.496-0.613-7.008-0.905-10.403c2.186-1.626,2.305,0.775,2.764,2.409
			c0.529,1.912,1.03,3.833,1.567,5.753c0.46,1.617,0.933,3.251,1.393,4.877c0.167-0.093,0.341-0.185,0.501-0.286
			c-0.453-1.963-0.919-3.934-1.365-5.846c1.434-1.272,3.105-1.971,3.732-3.529c0.627-1.55,0.202-3.967,0.258-7.278
			c3.69,7.194,6.928,13.486,9.831,19.13c-0.487-1.921-1.211-4.759-1.936-7.606c0.244-0.118,0.466-0.219,0.71-0.345
			c0.661,2.586,1.643,5.088,1.936,7.733c1.128,10.386,2.047,20.814,3.05,31.226c0.139,0.008,0.265,0.034,0.411,0.051
			c0.132-0.96,0.244-1.929,0.439-3.521c12.108,23.653,20.518,49.707,30.551,74.497c-1.351-4.902-2.917-9.653-4.63-14.303
			c-7.178-19.542-13.82-39.54-21.813-58.391c-4.414-10.361-5.988-20.806-6.197-32.228c-0.021-0.884,0.39-2.072,0.87-2.628
			c2.026-2.291,4.372-4.094,6.162-6.688c1.49-2.14,2.688-2.561,4.428-1.036c0.592,0.531,1.309,0.817,2.012,1.23
			c0.522-1.735,0.947-3.1,1.643-5.366c7.485,3.631,14.085,10.201,21.556,14.059c-8.661-7.59-17.385-15.011-26.416-21.623
			c-3.314-2.426-4.359-6.292-6.392-11.38c4.748,1.693,8.703,3.117,12.136,4.346c0.258-3.546,0.494-6.772,0.724-9.99
			c-0.209-0.008-0.432-0.017-0.647-0.017c-0.411,2.561-0.829,5.105-1.309,8.053c-2.207-3.285-6.016-3.967-5.375-9.805
			c1.302-0.446,2.583-0.893,4.623-1.6c-1.817-0.556-2.813-0.876-4.345-1.356c3.586-0.884,6.649-1.643,9.713-2.409
			c-0.028-0.126-0.049-0.253-0.077-0.379c-3.697-0.413-7.394-0.834-10.945-1.221c-0.829-3.647,0.466-3.858,2.131-3.892
			c12.212-0.278,24.417-0.615,36.63-0.943c3.251-0.093,6.496-0.202,9.74-0.303c0-0.16-0.007-0.329-0.021-0.48
			c-11.411-0.606-22.809-1.205-34.227-1.803c0-0.244-0.014-0.505-0.021-0.741c2.374-1.289,4.755-2.569,7.13-3.858
			c-0.028-0.101-0.056-0.211-0.084-0.32c-6.837,1.398-13.695,2.813-20.525,4.212c-0.063-0.32-0.111-0.623-0.167-0.927
			c1.97-1.272,3.934-2.544,5.918-3.816c-0.091-0.295-0.167-0.59-0.258-0.884c-1.295,0.623-2.597,1.247-4.191,2.013
			c0.446-1.002,0.717-1.584,1.079-2.426c-4.442,2.106-8.675,4.119-12.915,6.141c0.453-1.247,1.128-1.777,1.657-2.519
			c2.848-3.934,7.826-4.827,8.425-12.003c0.042-0.581,0.787-1.137,1.288-1.525c0.975-0.783,1.998-1.449,3.147-2.257
			c-0.362-0.227-0.529-0.446-0.661-0.404c-1.685,0.531-3.363,1.095-5.041,1.634c-3.795,1.238-3.795,1.238-5.403-4.793
			c5.312-4.304,9.274-11.026,13.556-17.26c0.661-0.96,1.26-2.03,1.887-3.049c-0.153-0.185-0.306-0.371-0.453-0.548
			c-3.432,4.304-6.879,8.617-10.311,12.938c-0.16-0.278-0.334-0.531-0.487-0.809c4.651-6.04,9.295-12.062,13.953-18.102
			c-0.891,0.051-1.49,0.59-1.991,1.272c-5.695,7.817-12.324,13.747-19.307,18.928c-1.699,1.255-3.391,2.535-4.978,4.035
			c-0.522,0.497-0.717,1.71-1.177,2.94c-0.515-0.438-1.323-1.112-2.263-1.912c0.091,0.986,0.181,1.828,0.272,2.746
			c-1.086,0.034-2.026,0.059-3.321,0.101c1.177-3.041,2.221-5.745,3.321-8.55c-0.564-0.446-1.03-0.817-1.532-1.221
			c-1.023,2.325-1.984,4.49-3.377,7.657c-0.251-2.14-0.745-3.698-0.439-4.136c1.915-2.788,3.996-5.324,6.064-7.918
			c0.146-0.202,0.494-0.11,0.842-0.168c-0.209,1.154-0.383,2.148-0.703,3.85c1.288-0.8,2.583-0.986,2.987-1.946
			c3.05-7.177,6.085-14.387,8.773-21.834c1.448-4.01,3.363-4.431,6.071-3.647c3.251,0.952,6.538,1.55,9.803,2.291
			c0.07-0.354,0.146-0.724,0.216-1.095c-3.983-2.552-7.979-5.096-12.01-7.665c1.01-5.686,4.331-0.665,6.19-2.83
			c-1.441-1.188-2.757-2.274-4.407-3.639c2.381-6.343,4.644-12.349,6.907-18.372c-0.223-0.16-0.432-0.32-0.654-0.489
			c-3.878,9.653-7.742,19.29-12.143,30.249c-0.606-2.46-0.968-3.934-1.365-5.551c-0.905,1.415-2.019,3.167-3.335,5.214
			c2.012,0.741,3.168,1.154,4.581,1.676c-7.234,11.692-13.166,24.226-21.57,33.492c1.768-3.967,3.53-7.935,5.222-11.936
			c2.764-6.503,5.354-13.259,7.422-20.258c1.657-5.602,2.43-11.725,3.6-17.613c-1.553,3.117-2.52,6.486-3.481,9.872
			c-0.968,3.395-1.755,6.941-2.945,10.184c-1.037,2.864-1.859,5.795-2.66,8.786c-0.905,3.361-2.131,6.553-3.217,9.813
			c-0.244,0.008-0.494,0.025-0.738,0.051c0.905-2.055,1.594-4.279,1.295-7.143c-0.738,0.716-1.441,1.398-2.214,2.14
			c0.272-5.618,0.599-11.237,1.093-16.822c0.216-2.359,0.529-5.231,1.594-6.806c3.808-5.686,8.056-10.774,11.948-16.367
			c2.792-4.035,5.284-8.516,7.394-11.961c-3.565,4.144-7.749,9.047-11.982,13.882c-10.68,12.206-8.703,7.606-10.311,26.433
			c-0.223,2.662-0.508,5.298-0.787,7.952c-0.508,1.777-1.017,3.546-1.532,5.324c1.017-10.529,2.033-21.059,3.05-31.58
			c-0.244-0.059-0.487-0.11-0.738-0.177c-0.773,5.256-1.761,10.496-2.284,15.802c-0.647,6.621-0.801,13.343-1.392,19.964
			c-0.056,0.455-0.118,0.893-0.174,1.348c-0.703,2.434-1.413,4.886-2.124,7.354c0.021-1.002,0.035-1.963,0.042-2.569
			c-0.543,0.901-1.093,1.803-1.657,2.712c-0.376-0.051-0.731-0.093-1.051-0.126c0.014,0.606,0.028,1.213,0.042,1.786
			c-0.097,0.143-0.181,0.295-0.272,0.43c0.223,1.432,0.167,2.83-0.014,4.229c-1.936,1.457-3.69,2.754-5.257,3.925
			c-0.07-0.943,0.188-2.367,0.508-5.197c0.71-6.436,1.17-12.947,1.685-19.425c0.049-0.522-0.306-1.112-0.745-2.561
			c-0.341,3.883-0.599,6.781-0.863,9.847c-2.416,0.674-4.707,1.314-6.99,1.946c-0.341-1.693-0.613-3.049-0.891-4.405
			c-0.167,0.025-0.334,0.076-0.501,0.11c0.091,1.373,0.167,2.771,0.258,4.203c-0.557-2.957-0.912-6.04-1.044-9.257
			c-0.251,0.11-0.487,0.211-0.745,0.32c0.327,3.336,0.661,6.68,1.003,10.192c-0.592,0.227-1.177,0.463-1.852,0.724
			c-1.365-4.456-2.493-8.491-1.302-13.435c1.643-6.772,2.813-13.789,4.184-20.705c-0.265,0-0.536-0.017-0.808-0.025
			c-0.306-1.061-0.954-2.14-0.891-3.15c0.703-11.843,1.511-23.662,2.298-35.48c0.209-3.125,0.432-6.25,0.599-9.384
			c0.181-3.058,0.306-6.115,0.46-9.182c-0.146-0.008-0.299-0.025-0.446-0.034c-2.388,28.665-4.769,57.313-7.143,85.869
			c-3.627,0.952-4.957,3.833-3.446,9.165c-0.348,0.067-0.703,0.143-1.044,0.219c-3.196-6.343-6.392-12.669-9.295-18.422
			c0.418,1.811,1.037,4.54,1.657,7.261c-1.044-1.491-1.859-3.193-2.172-5.046C78.231,143.815,77.695,138.955,76.943,134.137z
			 M70.573,236.01c-2.298,2.931-4.595,5.854-6.893,8.777c-0.195-0.244-0.383-0.505-0.578-0.767c2.291-2.982,4.567-5.972,6.858-8.954
			C70.162,235.37,70.371,235.69,70.573,236.01z M91.293,269.089c-0.348,6.924-0.829,13.831-1.379,20.722
			c-0.091,1.112-0.529,2.426-1.114,3.15c-3.342,4.026-6.781,7.901-10.186,11.835c-0.244-0.27-0.487-0.531-0.731-0.792
			c2.548-8.078,5.145-16.106,7.596-24.234c1.149-3.799,1.949-7.809,3.05-11.641c0.265-0.901,1.1-1.474,1.671-2.182
			C90.583,267,91.342,268.095,91.293,269.089z M105.984,242.16c-3.892-3.504-3.913-3.58-1.657-8.71
			C104.918,236.575,105.413,239.186,105.984,242.16z M123.557,237.484c-0.912,0.708-1.859,1.457-3.119,2.434
			c-0.717-2.535-1.351-4.835-2.075-7.404C121.197,230.527,121.705,231.024,123.557,237.484z M92.804,228.16
			c-2.068-3.42,0.299-5.071,1.379-7.531c0.752,0.91,1.386,1.668,2.235,2.704C95.157,225.026,94.036,226.526,92.804,228.16z
			 M125.291,224.917c-0.411-0.758-0.216-2.182-0.299-3.294c0.856,0.059,1.859-0.253,2.548,0.261
			c1.657,1.247,3.182,2.906,4.971,4.608c0.265-2.746-1.741-6.183,1.852-6.874c1.218,5.888-1.309,9.822-3.523,14.716
			C128.807,230.939,126.948,228.016,125.291,224.917z M138.046,242.421c-5.883-7.783-5.883-7.783-1.908-15.339
			c2.402,1.988,4.686,3.892,7.255,6.031C141.485,236.423,139.78,239.413,138.046,242.421z M150.007,235.539
			c-3.342-2.384-6.287-4.49-9.246-6.587c0.571-2.274,1.023-4.069,1.49-5.863C146.408,224.529,149.311,227.781,150.007,235.539z
			 M140.218,223.982c-0.042,0.977-1.594,2.746-2.249,2.578c-2.646-0.691-3.084-3.403-2.214-7.05
			C137.231,221.227,140.385,219.265,140.218,223.982z M120.904,226.542c-0.376,0.438-2.632-2.418-4.024-3.757
			c0.16-0.489,0.334-0.952,0.501-1.44c0.759-0.463,1.511-0.918,2.562-1.558C120.104,222.449,123.195,223.881,120.904,226.542z
			 M117.284,219.13c-0.912-0.472-1.81-0.943-2.98-1.567c-0.16,1.971-0.306,3.748-0.515,6.537c-1.413-1.196-2.437-2.081-3.676-3.142
			c-0.529,0.387-1.42,1.019-2.576,1.836c-0.084-1.474-0.153-2.662-0.216-3.647c-1.386,0.986-2.701,1.929-4.623,3.31
			c0.251-4.473,0.125-7.707,3.231-8.061c0.16-0.025,0.334-0.253,0.466-0.421c1.121-1.331,2.263-3.782,3.356-3.723
			c1.232,0.076,2.388,2.451,3.634,3.698c1.413,1.407,2.882,2.67,4.338,4.001C117.576,218.355,117.43,218.734,117.284,219.13z
			 M134.989,215.482c-2.548-1.381-5.02-2.712-8.439-4.574c1.455-1.339,2.325-2.847,3.084-2.738
			C133.806,208.71,135.066,210.513,134.989,215.482z M95.812,206.318c-2.98,1.828-5.946,3.639-9.225,5.644
			c0.056,0.152-0.265-0.691-0.808-2.173c3.377-1.626,6.524-3.142,9.664-4.65C95.568,205.526,95.693,205.913,95.812,206.318z
			 M136.089,200.413c-2.722,0.337-4.978,0.615-7.805,0.952c0.606-1.44,0.996-2.359,1.532-3.639
			c-0.884,0.329-1.601,0.598-2.479,0.927C129.169,195.308,132.267,195.889,136.089,200.413z M125.5,197.903
			c-0.787,1.398-1.399,3.622-2.395,4.001c-2.186,0.859-4.477,0.438-6.524-3.521c3.084-0.64,5.688-1.188,8.285-1.735
			C125.082,197.077,125.291,197.49,125.5,197.903z M97.002,196.353c0.049,0.522,0.097,1.036,0.146,1.567
			c-2.75,0.446-5.493,0.884-8.362,1.348C89.128,192.907,92.128,192.149,97.002,196.353z M64.286,164.394
			c-0.223-0.556-0.285-1.685-0.042-2.081c0.265-0.446,1.065-0.691,1.448-0.446c2.959,1.895,5.883,3.925,8.975,6.031
			c-0.849,2.081-1.546,3.799-2.207,5.458C68.428,172.615,66.158,168.825,64.286,164.394z M73.873,172.725
			c0.877-1.053,1.852-3.091,2.611-2.94c2.771,0.573,2.583,3.58,1.239,7.632C76.435,175.858,75.154,174.3,73.873,172.725z
			 M95.206,170.484c0.104,0.43,0.265,0.851,0.529,1.196c0-0.034,0-0.059,0-0.093c0.404,0.851,0.766,1.668,1.086,2.485
			c0.056,0.152-1.587,1.971-1.692,1.836c-1.03-1.348-2.033-2.839-2.757-4.549c-0.174-0.396,0.745-1.727,1.553-3.47
			C94.405,168.858,94.816,169.692,95.206,170.484z M109.472,181.527c-0.439,0.143-0.982,0.177-1.741-0.059
			c-0.014-0.986,0.007-1.769,0.021-2.485C108.623,179.641,109.186,180.474,109.472,181.527z M79.366,180.971
			c2.144,0.977,4.08,1.676,5.883,2.822c0.578,0.362,0.766,1.971,1.121,3.024c-0.745,0.413-1.58,1.373-2.256,1.179
			C79.401,186.657,79.171,186.228,79.366,180.971z M127.122,180.466c-0.926,1.171-1.803,2.418-2.778,3.487
			c-1.023,1.12-2.158,2.072-3.224,3.108c0.181,0.421,0.362,0.851,0.55,1.272c1.88-1.44,3.753-2.864,6.106-4.667
			c-0.299,1.247-0.39,3.193-0.912,3.454c-2.875,1.499-5.862,2.578-8.814,3.799c-0.125-0.404-0.244-0.792-0.369-1.205
			c2.931-3.411,5.883-6.823,8.821-10.226C126.718,179.826,126.92,180.146,127.122,180.466z M119.943,175.159
			c-2.896-2.123-2.688-3.285,1.441-7.505C123.536,171.487,120.473,172.725,119.943,175.159z M110.28,178.773
			c-0.982-0.927-1.713-1.541-2.263-2.038c0.376-1.381,1.218-1.634,2.917-1.466C110.676,176.414,110.44,177.568,110.28,178.773z
			 M100.49,159.938c2.332-0.64,4.505-1.23,7.178-1.954c-0.968,5.762-1.511,11.422-2.374,16.889c-1.685-2.476-3.063-5.18-4.143-8.078
			C100.936,164.562,100.72,162.297,100.49,159.938z M90.708,158.927c-0.084-0.354,1.128-1.634,1.866-1.996
			c0.146-0.076,0.39,0.042,0.634,0.244c-0.084,0.986-0.167,2.005-0.251,2.999c0.021,0,0.522-0.051,1.023-0.109
			c-0.202,1.407-0.404,2.813-0.585,4.111c-0.292-0.126-0.557-0.27-0.738-0.531C91.773,162.372,91.14,160.629,90.708,158.927z
			 M89.497,173.222c-0.933,1.297-0.933,1.297-8.257-3.134c0.515,2.645,1.748,5.618-1.448,6.537
			c-0.543-5.501,0.884-9.94,3.363-14.219C85.333,166.129,87.415,169.684,89.497,173.222z M81.573,160.519
			c-0.292,3.016-2.089,5.72-3.265,8.71c-2.764-2.224-5.083-4.094-7.68-6.166c1.88-3.327,3.572-6.318,5.472-9.687
			C77.667,156.838,82.075,155.314,81.573,160.519z"/>
		<path class="st0" d="M164.456,136.164c-5.532,6.041-11.071,12.082-16.616,18.123c-0.155-0.193-0.316-0.399-0.47-0.586
			c5.519-6.067,11.038-12.127,16.551-18.2C164.101,135.72,164.282,135.939,164.456,136.164z"/>
	</g>
</g>
</svg>