<!-- Generator: Adobe Illustrator 19.1.0, SVG Export Plug-In  -->
<svg version="1.1"
	 xmlns="http://www.w3.org/2000/svg" xmlns:xlink="http://www.w3.org/1999/xlink" xmlns:a="http://ns.adobe.com/AdobeSVGViewerExtensions/3.0/"
	 x="0px" y="0px" width="149.108px" height="128.371px" viewBox="0 0 149.108 128.371"
	 style="enable-background:new 0 0 149.108 128.371;" xml:space="preserve">
<style type="text/css">
	.st0{fill:#A9AAAA;}
	.st1{fill:#BDBEBE;}
</style>
<defs>
</defs>
<path class="st0" d="M23.975,1.218l25.217,25.217c0,0,0,7.381-7.381,15.376c-7.996,7.381-15.376,7.381-15.376,7.381L1.218,23.975
	c-3.69,14.146,1.23,31.367,11.686,41.823c15.991,15.991,35.673,1.845,39.978,6.15c22.142,22.142,39.978,44.899,41.208,46.129
	c6.766,6.766,17.836,6.766,23.987,0.615c6.766-6.766,6.15-17.221-0.615-23.987c-0.615-0.615-24.602-19.682-46.744-41.823
	c-4.305-4.305,11.071-23.372-5.535-39.978C55.343,2.448,38.121-2.472,23.975,1.218z M111.927,104.546
	c0,4.305-3.075,7.381-7.381,7.381c-4.305,0-7.381-3.075-7.381-7.381c0-4.305,3.075-7.381,7.381-7.381
	C108.852,97.166,111.927,100.241,111.927,104.546z"/>
<path class="st1" d="M147.89,29.491l-25.217,25.217c0,0-7.381,0-15.376-7.381c-7.381-7.996-7.381-15.376-7.381-15.376l25.217-25.217
	c-14.146-3.69-31.367,1.23-41.823,11.686c-15.991,15.991-1.845,35.673-6.15,39.978C55.018,80.54,32.261,98.377,31.031,99.607
	c-6.766,6.766-6.766,17.836-0.615,23.987c6.766,6.766,17.221,6.15,23.987-0.615c0.615-0.615,19.682-24.602,41.823-46.744
	c4.305-4.305,23.372,11.071,39.978-5.535C146.66,60.859,151.58,43.637,147.89,29.491z M44.562,117.443
	c-4.305,0-7.381-3.075-7.381-7.381c0-4.305,3.075-7.381,7.381-7.381s7.381,3.075,7.381,7.381
	C51.943,114.368,48.867,117.443,44.562,117.443z"/>
</svg>