<!-- Generator: Adobe Illustrator 19.1.0, SVG Export Plug-In  -->
<svg version="1.1"
	 xmlns="http://www.w3.org/2000/svg" xmlns:xlink="http://www.w3.org/1999/xlink" xmlns:a="http://ns.adobe.com/AdobeSVGViewerExtensions/3.0/"
	 x="0px" y="0px" width="32px" height="32px" viewBox="0 0 32 32" style="enable-background:new 0 0 32 32;" xml:space="preserve">
<style type="text/css">
	.st0{fill:#FFFFFF;}
</style>
<defs>
</defs>
<g>
	<path class="st0" d="M16,0C7.164,0,0,7.163,0,16s7.164,16,16,16s16-7.163,16-16S24.836,0,16,0z M6.248,20.472
		c-0.188-1.497-0.075-3.607,0.112-4.432c0.206-0.914,0.714-1.143,1.581-0.795c1.714,0.686,3.423,1.384,5.131,2.084
		c0.539,0.221,0.777,0.604,0.753,1.161c-0.023,0.528-0.284,0.861-0.845,1.04c-1.8,0.574-3.598,1.149-5.403,1.707
		C6.861,21.457,6.409,21.213,6.248,20.472z M15.954,27.929c-0.008,0.723-0.379,1.109-1.096,1.038c-1.6-0.158-3.076-0.703-4.4-1.611
		c-0.6-0.412-0.648-0.941-0.184-1.5c1.227-1.478,2.467-2.945,3.711-4.409c0.348-0.41,0.814-0.501,1.315-0.302
		c0.469,0.186,0.685,0.511,0.688,1.064c0.005,0.954,0.001,1.907,0.001,2.861c-0.01,0-0.021,0-0.032,0
		C15.957,26.022,15.966,26.976,15.954,27.929z M15.952,14.65c-0.22,0.795-1.011,1.029-1.638,0.486
		c-0.253-0.219-0.469-0.498-0.65-0.782c-1.733-2.722-3.456-5.451-5.179-8.18C7.988,5.386,8.087,4.911,8.922,4.487
		c1.652-0.839,3.409-1.345,5.262-1.457c0.884-0.053,1.194,0.244,1.255,1.118c0.217,3.12,0.423,6.24,0.641,9.474
		C16.049,13.895,16.052,14.287,15.952,14.65z M18.065,15.807c1.129-1.532,2.252-3.069,3.39-4.595
		c0.487-0.653,1.017-0.717,1.62-0.157c1.12,1.04,1.956,2.288,2.49,3.719c0.289,0.775,0.034,1.227-0.765,1.433
		c-1.815,0.467-3.635,0.914-5.454,1.367c-0.109,0.027-0.224,0.033-0.315,0.046c-0.494-0.014-0.832-0.249-1.049-0.652
		C17.77,16.571,17.79,16.178,18.065,15.807z M25.583,23.419c-0.618,1.218-1.454,2.269-2.48,3.168
		c-0.158,0.139-0.342,0.259-0.532,0.349c-0.447,0.213-0.862,0.125-1.123-0.288c-1.078-1.705-2.145-3.417-3.198-5.137
		c-0.27-0.443-0.133-0.883,0.182-1.261c0.302-0.361,0.694-0.498,1.147-0.347c1.86,0.615,3.717,1.239,5.575,1.861
		c0.424,0.142,0.666,0.419,0.692,0.899C25.761,22.916,25.703,23.183,25.583,23.419z"/>
</g>
</svg>