<!-- Generator: Adobe Illustrator 19.1.0, SVG Export Plug-In  -->
<svg version="1.1"
	 xmlns="http://www.w3.org/2000/svg" xmlns:xlink="http://www.w3.org/1999/xlink" xmlns:a="http://ns.adobe.com/AdobeSVGViewerExtensions/3.0/"
	 x="0px" y="0px" width="390.649px" height="361.486px" viewBox="0 0 390.649 361.486"
	 style="enable-background:new 0 0 390.649 361.486;" xml:space="preserve">
<style type="text/css">
	.st0{fill:#A7A9AC;}
	.st1{fill:#58595B;}
</style>
<defs>
</defs>
<g>
	<g>
		<path class="st0" d="M147.53,347.692c-7.446,4.517-14.72,9.669-22.671,13.363c-2.882,1.339-7.385-0.811-11.148-1.37
			c2.128-2.881,3.685-7.401,6.478-8.374c16.038-5.585,20.036-16.339,17.285-32.3c-2.013-11.681,1.458-23.055,8.101-33.148
			c-8.746-8.995-29.249-8.29-35.319,2.075c-12.482,21.313-31.393,31.016-55.198,32.886c-2.09,0.164-4.497,0.76-6.229-0.019
			c-2.694-1.212-4.935-3.432-7.368-5.225c2.417-2.092,4.533-5.343,7.307-6.064c9.442-2.457,19.382-3.185,28.637-6.129
			c12.81-4.075,19.339-15.045,25.847-26.501c-6.524-3.966-12.362-7.967-18.65-11.048c-1.747-0.856-5.326,0.341-7.222,1.739
			c-20.063,14.786-43.458,18.821-67.371,20.742c-3.181,0.255-6.664-3.252-10.007-5.017c3.243-2.312,6.441-6.547,9.737-6.624
			c22.379-0.529,42.887-6.398,61.637-18.686c5.275-3.457,6.41-7.578,5.602-13.735c-0.879-6.693-0.005-13.626,0.217-20.45
			c0.083-2.543,0.484-5.076,0.918-9.38c-7.362,3.326-12.918,6.891-18.976,8.31c-7.933,1.859-16.272,2.655-24.419,2.547
			c-2.584-0.034-7.372-4.599-7.199-6.777c0.374-4.717,4.399-5.316,9.464-4.928c6.809,0.522,14.425,0.266,20.578-2.317
			c15.499-6.507,29.614-15.123,36.829-31.851c2.896-6.714,7.671-12.617,12.732-20.717c-7.49-1.811-14.503-3.235-21.354-5.219
			c-13.952-4.039-27.946-8.012-41.628-12.847c-3.522-1.245-6.556-5.226-8.637-8.663c-1.148-1.896,0.149-5.272,0.344-7.981
			c2.704,0.3,6.598-0.444,7.923,1.066c10.364,11.806,24.6,13.539,38.701,16.028c8.483,1.497,16.907,3.384,25.284,5.403
			c5.128,1.236,8.831,0.648,12.558-3.899c6.019-7.344,13.172-13.749,19.59-20.784c1.54-1.688,2.075-4.293,4.495-9.593
			c-17.494,1.501-32.224,3.056-46.994,3.946c-13.567,0.817-27.179,1.196-40.766,1.101c-2.733-0.019-6.002-2.561-7.972-4.846
			c-1.348-1.564-1.786-5.131-0.909-6.992c0.656-1.393,4.9-2.77,6.106-1.973c13.051,8.617,26.198,4.295,39.771,1.718
			c13.35-2.535,27.055-3.202,41.163-4.75c-0.099-0.581-0.029-2.375-0.707-3.816c-6.272-13.329-12.993-26.455-18.952-39.919
			c-7.045-15.916-11.899-19.094-29.071-18.761c-2.847,0.055-5.753-2.884-8.631-4.44c2.685-2.095,5.15-5.606,8.089-6.062
			c24.923-3.866,33.839,8.437,42.211,29.811c3.884,9.914,7.586,20.061,12.902,29.214c7.248,12.479,25.754,16.749,33.118,8.014
			c3.831-4.544,6.011-10.842,7.752-16.7c2.454-8.26,4.152-16.791,5.564-25.306c2.923-17.636-8.697-37.276-24.658-40.194
			c-5.692-1.04-12.041,1.946-18.143,2.562c-3.628,0.366-9.564,1.024-10.637-0.756c-3.313-5.494,1.909-7.026,6.07-9.263
			c29.236-15.714,56.78,9.982,58.223,36.969c0.392,7.337-0.658,14.751-1.18,24.668c4.985-4.838,8.715-8.502,12.492-12.116
			c6.708-6.418,14.055-12.299,19.938-19.397c3.486-4.205,4.58-10.355,6.953-15.538c1.007-2.199,2.622-5.922,3.805-5.862
			c2.454,0.124,5.885,1.718,7.008,3.757c4.571,8.299-0.271,15.242-5.231,21.06c-6.583,7.722-14.467,14.318-21.489,21.687
			c-6.387,6.703-12.352,13.808-18.535,20.706c-4.312,4.81-1.229,7.167,2.874,9.553c9.166,5.33,18.673,10.238,27.161,16.509
			c5.458,4.032,8.603,4.438,13.606-0.482c12.083-11.884,25.365-21.507,43.594-21.996c13.937-0.374,26.525,3.096,38.129,10.301
			c1.848,1.147,2.194,4.712,3.235,7.16c-2.752,0.743-5.826,2.664-8.197,2.015c-7.992-2.187-15.54-6.38-23.612-7.805
			c-15.829-2.794-29.132,3.037-40.361,14.427c-9.948,10.091-10.143,9.898-1.015,20.609c14.79,17.353,14.866,17.531,35.485,8.72
			c21.789-9.311,43.21-7.215,64.258,1.892c2.563,1.109,3.541,5.879,5.254,8.953c-3.399,0.465-7.585,2.448-10.076,1.158
			c-23.059-11.945-45.139-7.366-66.99,3.081c-4.268,2.041-5.036,4.722-2.033,9.329c7.002,10.743,12.855,22.236,19.902,32.947
			c2.077,3.157,6.366,6.123,10.03,6.699c7.044,1.107,14.467-0.295,21.555,0.661c17.859,2.409,26.362-14.202,27.783-28.388
			c0.328-3.275-0.686-6.861,0.301-9.846c1.046-3.165,3.741-5.785,5.715-8.643c2.14,3.045,6.3,6.22,6.115,9.117
			c-2.367,37.078-14.776,53.305-54.674,49.508c-8.014-0.763-8.469,1.118-7.324,7.934c2.829,16.845,16.403,22.731,29.259,28.405
			c12.603,5.562,26.025,9.067,39.968,2.423c2.08-0.991,5.969,1.812,9.021,2.861c-2.461,2.925-4.39,7.489-7.476,8.493
			c-14.132,4.595-28.477,3.135-42.248-1.796c-6.594-2.361-12.843-6.025-18.743-9.875c-4.804-3.134-6.936-1.656-8.691,2.903
			c-1.475,3.834-3.11,7.608-5.044,12.309c12.692,1.984,24.236,7.662,31.904,18.115c6.508,8.871,11.48,19.05,15.938,29.176
			c2.794,6.347,6.074,9.674,13.161,9.874c2.179,0.061,4.273,3.136,6.406,4.83c-2.032,2.113-3.712,5.402-6.158,6.134
			c-9.861,2.952-21.49-5.834-25.357-19.055c-4.854-16.593-13.267-30.968-30.669-35.416c-19.793-5.059-40.474-6.078-60.323-0.016
			c-3.874,1.183-6.838,9.142-8.071,14.473c-3.941,17.043-1.09,32.942,9.933,47.19c1.5,1.939,0.03,6.177-0.065,9.351
			c-3.076-0.954-7.431-0.929-9.027-3.015c-13.085-17.102-17.631-36.143-11.189-57.184c2.639-8.618,1.526-10.03-7.15-9.404
			c-4.191,0.302-8.411,0.221-12.619,0.244c-13.269,0.073-18.383,4.937-20.799,18.21c-1.694,9.305-4.033,18.557-6.918,27.566
			c-4.44,13.862-16.968,17.474-29.092,20.506C155.232,352.22,151.121,349.033,147.53,347.692z M164.934,149.382
			c-14.387,0.867-27.424,5.68-37.335,16.419c-2.761,2.992-4.237,8.706-3.736,12.861c1.161,9.622,24.071,22.963,33.12,19.033
			c8.027-3.486,15.712-8.404,22.467-13.996c6.781-5.614,9.578-13.561,6.277-22.576C182.158,151.379,174.72,148.358,164.934,149.382z
			 M241.044,160.887c-0.079,0.559-0.159,1.118-0.238,1.677c-5.104,0-10.318-0.655-15.282,0.18
			c-5.199,0.874-10.419,2.652-15.153,4.997c-5.496,2.722-10.241,6.627-7.602,14.081c4.92,13.897,30.071,26.261,43.254,20.377
			c7.426-3.315,14.091-8.502,20.756-13.319c10.026-7.247,7.021-19.313-3.248-23.586C256.62,162.418,248.579,162.26,241.044,160.887z
			 M187.103,285.041c-6.132,0-12.042,0.477-17.842-0.117c-7.748-0.793-11.698,2.744-15.34,9.254
			c-8.57,15.318-2.659,31.152-4.63,46.704c17.497-0.768,27.986-8.169,31.398-24.123
			C182.837,306.722,184.767,296.639,187.103,285.041z"/>
	</g>
</g>
<g>
	<g>
		<path class="st1" d="M105.811,237.82c4.35,3.926,8.666,7.894,13.051,11.781c3.36,2.978,6.85,4.712,11.119,2.243
			c4.478-2.589,8.3-7.11,12.1-10.567c4.855-4.417,9.711-8.834,14.566-13.25c-1.81-0.068-3.621-0.136-5.431-0.203
			c5.292,7.302,4.1,17.94,12.258,23.445c8.252,5.569,15.216-1.653,20.582-7.413c5.905-6.339,17.965-11.397,21.504,0.006
			c1.984,6.391,2.155,14.484,9.533,17.113c1.377,0.49,2.957-0.057,3.919-1.123c4.413-4.889,8.825-9.778,13.238-14.667
			c2.101-2.328,4.182-4.676,6.304-6.984c2.589-2.817,3.662-2.055,6.06,0.561c7.529,8.211,15.718,14.441,26.508,17.771
			c3.4,1.05,5.826-2.871,5.762-5.822c-0.101-4.633,0.726-8.99,2.888-13.126c1.024-1.96,1.821-4.993-0.193-6.682
			c-1.788-1.499-4.568-0.35-5.57,1.567c-3.412,6.529-5.16,13.183-4.998,20.576c1.921-1.941,3.841-3.881,5.762-5.822
			c-6.286-1.94-12.098-4.839-17.199-9.029c-4.13-3.393-7.736-10.099-13.054-11.575c-6.162-1.71-10.398,4.792-13.935,8.71
			c-5.253,5.82-10.506,11.641-15.759,17.461c1.306-0.374,2.612-0.749,3.919-1.123c-5.582-1.988-4.964-12.549-7.586-17.201
			c-3.965-7.033-12.789-8.75-19.939-5.902c-3.709,1.477-6.936,3.858-9.794,6.62c-2.594,2.507-5.834,8.117-9.811,8.416
			c-4.847,0.364-7.311-5.592-8.43-9.353c-1.364-4.587-2.437-9.14-5.292-13.078c-1.459-2.014-3.684-1.793-5.431-0.203
			c-6.798,6.184-13.595,12.367-20.393,18.55c-1.415,1.287-3.715,3.965-6.013,3.423c-1.589-0.374-4.031-3.585-5.25-4.686
			c-3.205-2.894-6.411-5.787-9.616-8.681C107.245,226.012,102.252,234.607,105.811,237.82L105.811,237.82z"/>
	</g>
</g>
</svg>