<!-- Generator: Adobe Illustrator 19.1.0, SVG Export Plug-In  -->
<svg version="1.1"
	 xmlns="http://www.w3.org/2000/svg" xmlns:xlink="http://www.w3.org/1999/xlink" xmlns:a="http://ns.adobe.com/AdobeSVGViewerExtensions/3.0/"
	 x="0px" y="0px" width="49.652px" height="49.652px" viewBox="0 0 49.652 49.652"
	 style="enable-background:new 0 0 49.652 49.652;" xml:space="preserve">
<style type="text/css">
	.st0{fill:#FFFFFF;}
</style>
<defs>
</defs>
<g>
	<path class="st0" d="M24.826,0C11.115,0,0,11.115,0,24.826s11.115,24.826,24.826,24.826s24.826-11.115,24.826-24.826
		S38.537,0,24.826,0z M9.695,31.765c-0.291-2.322-0.116-5.596,0.174-6.877c0.32-1.419,1.107-1.773,2.453-1.233
		c2.659,1.065,5.311,2.148,7.961,3.233c0.837,0.343,1.205,0.938,1.169,1.801c-0.036,0.819-0.441,1.336-1.311,1.613
		c-2.792,0.89-5.583,1.782-8.383,2.648C10.645,33.294,9.944,32.915,9.695,31.765z M24.755,43.335
		c-0.012,1.122-0.588,1.72-1.701,1.61c-2.482-0.245-4.773-1.091-6.827-2.5c-0.931-0.639-1.006-1.459-0.286-2.327
		c1.904-2.293,3.828-4.57,5.758-6.842c0.54-0.636,1.263-0.778,2.041-0.469c0.727,0.289,1.063,0.793,1.067,1.651
		c0.008,1.48,0.002,2.959,0.002,4.438c-0.016,0-0.032,0-0.049,0C24.759,40.376,24.773,41.856,24.755,43.335z M24.752,22.732
		c-0.341,1.234-1.569,1.596-2.542,0.754c-0.393-0.34-0.728-0.772-1.008-1.213c-2.689-4.224-5.362-8.458-8.035-12.693
		c-0.772-1.223-0.618-1.96,0.677-2.617c2.564-1.301,5.29-2.087,8.165-2.26c1.371-0.082,1.853,0.378,1.948,1.735
		c0.337,4.841,0.656,9.683,0.994,14.7C24.902,21.559,24.907,22.168,24.752,22.732z M28.03,24.526c1.752-2.377,3.494-4.763,5.26-7.13
		c0.756-1.014,1.578-1.112,2.514-0.243c1.737,1.613,3.035,3.55,3.863,5.771c0.449,1.202,0.052,1.904-1.187,2.223
		c-2.816,0.724-5.64,1.418-8.462,2.121c-0.17,0.042-0.348,0.052-0.489,0.072c-0.767-0.021-1.291-0.386-1.627-1.012
		C27.572,25.711,27.604,25.102,28.03,24.526z M39.695,36.338c-0.958,1.89-2.256,3.521-3.848,4.915
		c-0.245,0.215-0.53,0.401-0.825,0.542c-0.693,0.331-1.337,0.194-1.742-0.447c-1.673-2.645-3.328-5.301-4.962-7.97
		c-0.419-0.688-0.206-1.37,0.283-1.957c0.468-0.561,1.076-0.772,1.78-0.539c2.887,0.954,5.767,1.923,8.65,2.888
		c0.658,0.22,1.033,0.65,1.074,1.395C39.972,35.557,39.881,35.971,39.695,36.338z"/>
</g>
</svg>