<!-- Generator: Adobe Illustrator 19.1.0, SVG Export Plug-In  -->
<svg version="1.1"
	 xmlns="http://www.w3.org/2000/svg" xmlns:xlink="http://www.w3.org/1999/xlink" xmlns:a="http://ns.adobe.com/AdobeSVGViewerExtensions/3.0/"
	 x="0px" y="0px" width="32px" height="32px" viewBox="0 0 32 32" style="enable-background:new 0 0 32 32;" xml:space="preserve">
<style type="text/css">
	.st0{fill:#FFFFFF;}
</style>
<defs>
</defs>
<g>
	<g>
		<path class="st0" d="M16,0C7.178,0,0,7.178,0,16c0,8.822,7.178,16,16,16c8.822,0,16-7.178,16-16C32,7.178,24.823,0,16,0z
			 M19.979,16.563h-2.603c0,4.159,0,9.278,0,9.278h-3.857c0,0,0-5.07,0-9.278h-1.834v-3.279h1.834v-2.121
			c0-1.519,0.722-3.893,3.893-3.893l2.858,0.011v3.183c0,0-1.737,0-2.075,0c-0.338,0-0.818,0.169-0.818,0.893v1.927h2.939
			L19.979,16.563z"/>
	</g>
</g>
</svg>